<svg id="Layer_1" data-name="Layer 1" xmlns="http://www.w3.org/2000/svg" viewBox="0 0 774.71 390.86"><defs><style>.cls-1{fill:#72421a;}.cls-1,.cls-2,.cls-3,.cls-4{stroke:#231f20;stroke-miterlimit:10;stroke-width:0.25px;}.cls-2{fill:#4461ad;}.cls-3{fill:#4462ad;}.cls-4{fill:#5d9741;}</style></defs><title>LogoBES</title><polygon class="cls-1" points="90.97 390.79 225.42 142.13 162.63 142.13 229.18 35.63 61.73 35.63 139.18 213.14 116.93 248.63 0.2 0.13 293.22 0.13 226.67 106.63 289.46 106.63 90.97 390.79"/><polygon class="cls-2" points="491.15 35.63 323.71 35.63 345.89 0.13 513.32 0.15 491.15 35.63"/><polyline class="cls-3" points="423.93 142.13 319.27 142.13 341.46 106.63 445.87 106.63 423.93 142.13"/><polyline class="cls-3" points="430.97 248.63 242.6 248.63 264.77 213.14 453.15 213.14 430.97 248.63"/><path class="cls-4" d="M602.9,106.5,404.73,390.66,539.29,141.83H476.5L565,.23h209.3l-63.5,101.63L680.67,83.05,710.39,35.5H584.8l-44.36,71Z" transform="translate(0.2 0.13)"/></svg>